<?xml version="1.0" encoding="UTF-8" standalone="no"?>
<svg
   width="69.540001"
   height="59"
   viewBox="0 0 69.540001 59"
   fill="none"
   version="1.1"
   id="svg36"
   sodipodi:docname="sp-logo.svg"
   inkscape:version="1.3 (0e150ed, 2023-07-21)"
   xmlns:inkscape="http://www.inkscape.org/namespaces/inkscape"
   xmlns:sodipodi="http://sodipodi.sourceforge.net/DTD/sodipodi-0.dtd"
   xmlns="http://www.w3.org/2000/svg"
   xmlns:svg="http://www.w3.org/2000/svg">
  <defs
     id="defs36" />
  <sodipodi:namedview
     id="namedview36"
     pagecolor="#ffffff"
     bordercolor="#000000"
     borderopacity="0.25"
     inkscape:showpageshadow="2"
     inkscape:pageopacity="0.0"
     inkscape:pagecheckerboard="0"
     inkscape:deskcolor="#d1d1d1"
     inkscape:zoom="4.4021164"
     inkscape:cx="94.045673"
     inkscape:cy="17.264423"
     inkscape:window-width="2560"
     inkscape:window-height="1387"
     inkscape:window-x="0"
     inkscape:window-y="25"
     inkscape:window-maximized="1"
     inkscape:current-layer="svg36" />
  <path
     fill-rule="evenodd"
     clip-rule="evenodd"
     d="m 55.88,26.7308 c -0.703,0 -1.251,0.5681 -1.251,1.2826 0,0.7204 0.548,1.2885 1.251,1.2885 0.703,0 1.251,-0.5681 1.251,-1.2885 0,-0.7145 -0.548,-1.2826 -1.251,-1.2826 z m 0.363,2.1085 -0.405,-0.6677 h -0.155 v 0.6677 h -0.369 v -1.6751 h 0.536 c 0.512,0 0.768,0.1581 0.768,0.4802 0,0.2929 -0.19,0.4803 -0.369,0.5037 l -0.048,0.0059 0.447,0.6853 z"
     fill="#c4006b"
     id="path36" />
  <path
     fill-rule="evenodd"
     clip-rule="evenodd"
     d="M 56.608,0.65002402 H 12.931 C 6.075,6.60061 1.75,15.2981 1.75,24.9971 c 0,17.9279 14.785,32.4646 33.019,32.4646 18.235,0 33.02,-14.5367 33.02,-32.4646 0,-9.699 -4.325,-18.40235 -11.181,-24.34707598 z"
     fill="#ffffff"
     id="path31" />
  <path
     fill-rule="evenodd"
     clip-rule="evenodd"
     d="m 56.243,27.6617 c 0,-0.2163 -0.232,-0.2163 -0.316,-0.2163 h -0.243 v 0.4386 h 0.243 c 0.096,0 0.316,0 0.316,-0.2223 z"
     fill="#c4006b"
     id="path32" />
  <path
     fill-rule="evenodd"
     clip-rule="evenodd"
     d="m 40.233,23.4041 c 1.484,0 2.687,-1.2943 2.687,-2.8874 0,-1.5814 -1.18,-2.8172 -2.687,-2.8172 -1.507,0 -2.686,1.2358 -2.686,2.8172 0,1.5872 1.203,2.8874 2.686,2.8874 z"
     fill="#c4006b"
     id="path33" />
  <path
     fill-rule="evenodd"
     clip-rule="evenodd"
     d="M 57.108,0 H 12.437 C 5.426,6.08529 1,14.9877 1,24.9034 1,43.2413 16.119,58.1061 34.77,58.1061 53.421,58.1061 68.54,43.2413 68.54,24.9034 68.546,14.9877 64.12,6.08529 57.108,0 Z M 23.714,17.4183 c 0.822,-0.8141 1.983,-1.3002 3.097,-1.3002 1.12,0 2.276,0.4861 3.098,1.3002 0.81,0.7849 1.269,1.9094 1.269,3.0925 0,1.2475 -0.453,2.372 -1.269,3.1685 -0.87,0.8552 -2.025,1.3706 -3.098,1.3706 -1.072,0 -2.227,-0.5096 -3.097,-1.3706 -0.822,-0.7906 -1.269,-1.9152 -1.269,-3.1627 0,-1.1889 0.465,-2.3134 1.269,-3.0983 z m -6.058,7.4851 h -2.937 v -1.5286 h 3.765 c 0.714,0 1.125,-0.287 1.125,-0.7907 0,-0.41 -0.369,-0.6384 -1.09,-0.9371 l -1.441,-0.6091 c -1.525,-0.5974 -2.359,-1.1597 -2.359,-2.4306 0,-1.4057 1.072,-2.208 2.937,-2.208 h 3.258 v 1.511 h -3.64 c -0.583,0 -0.863,0.2284 -0.863,0.697 0,0.3163 0.268,0.5564 0.887,0.8024 l 1.579,0.6091 c 1.65,0.6443 2.49,1.2182 2.49,2.5712 -0.006,1.552 -1.215,2.3134 -3.711,2.3134 z m 12.348,11.2101 c -0.887,0.8785 -2.055,1.3998 -3.133,1.3998 -0.608,0 -1.185,-0.1054 -1.71,-0.3163 l -0.035,-0.0117 v -1.7044 l 0.083,0.041 c 0.506,0.2578 0.995,0.3749 1.543,0.3749 1.638,0 2.782,-1.2241 2.782,-2.9812 0,-1.6457 -1.174,-2.8405 -2.782,-2.8405 -1.537,0 -2.657,1.2533 -2.657,2.9811 v 8.1293 h -1.65 V 33.677 c 0,-1.0191 0,-1.9035 0.518,-2.7996 0.655,-1.3939 2.186,-2.2958 3.908,-2.2958 2.538,0 4.313,1.839 4.313,4.4805 0,1.1303 -0.399,2.1553 -1.18,3.0514 z m 4.331,1.2534 H 32.691 V 12.4517 h 1.644 z m 2.8,-19.9486 c 0.822,-0.8141 1.983,-1.3002 3.097,-1.3002 1.12,0 2.276,0.4861 3.098,1.3002 0.81,0.779 1.269,1.9094 1.269,3.0925 0,1.2475 -0.453,2.372 -1.269,3.1627 -0.87,0.8551 -2.025,1.3705 -3.098,1.3705 -1.072,0 -2.227,-0.5096 -3.097,-1.3705 -0.822,-0.7907 -1.269,-1.9152 -1.269,-3.1627 0,-1.1831 0.465,-2.3076 1.269,-3.0925 z m 7.482,19.8959 h -1.656 v -4.2053 c 0,-1.7278 -1.114,-2.9753 -2.657,-2.9753 -1.608,0 -2.776,1.1948 -2.776,2.8347 0,1.6985 1.191,2.9753 2.776,2.9753 0.536,0 1.03,-0.123 1.543,-0.3807 l 0.083,-0.041 v 1.7044 l -0.036,0.0117 c -0.548,0.2167 -1.108,0.3221 -1.709,0.3221 -0.673,0 -1.561,-0.2869 -2.359,-0.7672 -1.281,-0.861 -1.954,-2.1319 -1.954,-3.6781 0,-1.312 0.429,-2.4365 1.239,-3.2447 0.804,-0.8024 1.906,-1.23 3.193,-1.23 1.596,0 3.157,0.943 3.789,2.2959 0.524,0.8961 0.524,1.7746 0.524,2.7937 z m 9.15,0.0409 h -1.65 v -4.9607 c 0,-1.2065 -0.846,-2.0851 -2.008,-2.0851 -1.251,0 -2.127,0.8551 -2.127,2.0851 v 4.9607 h -1.656 v -4.5917 c 0,-1.23 0.37,-2.2608 1.061,-2.9929 0.679,-0.7145 1.62,-1.0894 2.722,-1.0894 2.186,0 3.658,1.6399 3.658,4.0823 z m 2.114,-7.6783 c -0.929,0 -1.691,-0.7438 -1.691,-1.6575 0,-0.9137 0.756,-1.6575 1.691,-1.6575 0.936,0 1.692,0.7438 1.692,1.6575 -0.006,0.9137 -0.762,1.6575 -1.692,1.6575 z"
     fill="#c4006b"
     id="path34" />
  <path
     fill-rule="evenodd"
     clip-rule="evenodd"
     d="m 26.812,23.4041 c 1.483,0 2.686,-1.2943 2.686,-2.8874 0,-1.5814 -1.179,-2.8172 -2.686,-2.8172 -1.508,0 -2.687,1.2358 -2.687,2.8172 0,1.5931 1.209,2.8874 2.687,2.8874 z"
     fill="#c4006b"
     id="path35" />
</svg>
